<?xml version="1.0" encoding="UTF-8"?>
<svg width="100pt" height="100pt" version="1.1" viewBox="0 0 100 100" xmlns="http://www.w3.org/2000/svg">
 <g>
  <path d="m94.445 84.445c0-5.5547-1.2461-12.234-2.6523-19.008-0.80078-7.7773-5.2266-9.2266-9.4844-10.188 0.30469 1.4336 0.43359 3.6172 0.48828 4.9609-0.58203-2.1484-0.24609-3.9531-3.3359-5.6641-0.38672-0.10156-0.76172-0.22266-1.125-0.35156-5.0742-1.4844-8.1758-3.3516-10.051-4.4922 0.60547-0.48438 0.92969-0.95703 0.85938-1.543 0.003907-0.12891-0.19922-0.31641-0.28906-0.39844 0.13281-0.16797 0.30859-0.47656 0.31641-0.61328 0.015625-0.35156-0.019531-0.53516-0.042969-0.77344-1.7031 1.1562-6.2969 1.543-8.0469 1.5078 1.3906 0.77734 4.8047 0.79688 6.9375 0.30078 0.55078 0.066406 0.26562 0.63281-0.10547 0.88281-1.1055 0.32031-2.082 0.6875-3.1797 0.61328 1.1641 0.50391 2.3789 0.6875 2.9414 1.5859-0.38672 0.71484-1.1562 1.6406-1.8672 1.9961-3.0039 0.61719-7.207 0.058593-10.266-1.8164-3.1562-0.23437-8.6602-3.5469-12.457-6.7578-0.89844-0.75391-1.9102-2.6289-2.0508-4.168-0.085937 1.0938-0.59766 2.2383-0.78125 2.4102l-0.003906-0.007813c-1.7734 1.3906-3.4883 2.5156-5.2812 3.7305-0.80469 0.54297-0.8125 1.1328-0.28516 1.7305l14.707 22.418-15.59-22.422c-6.3594 2.4375-8.1445 4.5234-18.219 8.8242 1.8711 1.2695 2.8086 3.3984 3.4336 5.9531-1.1992-2.3438-2.3789-4.6133-5.2266-5.5742-2.6562 0.8125-6.582 4.0898-6.2852 6.9648-1.4258 10.988-0.83594 16.562-0.83594 19.898v1.6758s0.16797 8.5195 12.109 8.5195c1.4297 0 2.8672 0.003906 5.0781 0.007813-1.9453-4.6562-2.1719-10.242-2.1719-10.242 0.45703 4.3789 2.7188 7.9258 4.6445 10.25 12.836 0.035156 32.664 0.125 32.664 0.125 3.6602 0 6.293 1.2227 7.1953 3.4688 1.168-2.625 2.9883-2.8438 5.3594-3.1445 2.8984-0.36328 6.0469-0.46484 10.367-0.46484 11.941 0 12.531-8.5234 12.531-8.5234zm-52.523-37.488-0.007813-0.019531c1.957 1.2812 4.5391 2.0312 7.4414 3.1953 2.7695 2.2266 5.2773 5.0273 8.6641 6.1875-2.6367 1.6641-4.5391 4.1875-5.9219 6.3984-3.8906-6.9258-8.2227-14.016-10.176-15.762zm16.793 28.293c-1.2539-2.6562-3.6328-7.1875-6.2539-11.879 1.6562-1.3984 3.3516-2.7891 4.9844-3.793 0.55469 1.375 1.0781 2.5664 1.9883 3.6523l0.089844-0.007813c-0.30078 4.0273-0.5625 8.0273-0.80859 12.027zm4.5-12.363 0.042968-0.003907c0.042969-0.58984 0.25391-3.8203 0.21484-4.6484 1.2773 0.64844 1.332 3.4492 2.0117 4.1016l0.80078 10.301c-1.2656-4.2461-2.418-7.8945-3.0703-9.75zm10.266 18.344 8.8828-0.95703c-1.2891 2.1445-5.1016 1.0117-8.8828 0.95703z"/>
  <path d="m42.785 37.836c-0.76562 0.22266-1.9375 0.375-2.7031 0.59766 1.2969 1.4102 2.1172 1.4609 2.7031-0.59766z"/>
  <path d="m36.027 32.789c-0.125-0.82422-0.16797-1.5273-0.125-2.125 1.4766-2.1914 4.4727-0.94141 5.0742 0.54688 0.99609 0.84766 0.98047 0.81641 2.4883 1.1172 1.0078 0.19922 2.1406 0.33203 3.1211 0.49609 1.0039 0.17188 2.2148 0.42969 3.1484 0.51953 0.98828 0.089844 2.1641 0.34375 3.0859 0.52344 1.4062 0.27734 1.3164 0.66797 1.5625 1.9531 0.21484 1.1445 0.16406 1.832 0.64063 2.793 0.29687 0.59766 1.2148 1.4141 2.0703 1.4922l0.70703 0.066406c2.1797 0.20312 4.1719-0.64062 5.2539-1.6602 0.42969-0.40625 1.25-1.5156 1.4727-2.0938 0.20703-0.53516 0.94922-2.0703 1.207-2.3906 0.089844-0.14062 0.34375-0.085938 0.35547 0.066406 0.14062 1.2539 0.46094 2.3789 1.4062 3.4297 0.48828 0.48437 1.1172 0.74609 1.8828 0.78516 1.2383-0.22266 2.3516-0.73828 3.1172-2.0547 0.83594-1.2617 1.4492-2.3008 1.7188-4.8672 0.054687-0.65234 0.33984-0.24609 0.39453-0.89844-0.10156-1.0742-0.98828-0.82031-1.3555-0.79688-2.3281-0.21484-4.3398 0.78906-6.5547 1.9375-0.13281 0.089844-0.28125 0.15625-0.4375 0.20312-0.39453 0.027344-0.82422 0.039063-1.2773 0.03125-0.16406-0.027343-0.33203-0.058593-0.50391-0.097656-0.61719-0.17188-1.2539-0.32031-1.9531-0.39844-1.5234-0.32031-5.9492 0.14844-6.5742 0.42578-0.8125 0.042969-1.5703 0.21094-2.3711 0.070312-0.78906-0.023437-3.5195-1.0039-4.4258-1.2891-2.5938-0.82812-6.4062-1.7539-9.5391-2.0469-0.67578 0.003906-2.207-0.17188-3.1172 0.36719 1.457-1.7695 5.5391-0.89062 13.039 0.9375-1.7344-4.0977-1.3281-9.5234 0.84766-12.137 1.8359-1.9766 15.035 0.16797 16.98-2.0625 1.9883-2.2773 4.5859 2.3359 4.3945 7.332 1.7305-12.074-7.5-17.758-17.359-18.508-7.2383 0.26172-11.926 2.4883-14.914 5.6328 1.7109 0.61719 3.2812 1.4414 4.8008 2.5312-1.8281-0.88672-3.5781-1.4766-5.4023-1.8672-5.4414 6.4492-4.4531 16.215-3.4023 21.391 0.17578 0.24219 0.35547 0.46094 0.54297 0.64453zm33.988-0.54297c0.11719-0.30469 0.625-0.085938 0.78516-0.31641 0.29297-0.4375 0.48828-0.95313 0.67578-1.3828 0.76953-0.25781 1.3633-0.32031 1.793 0.375 0.40625 1.4414-0.35156 3.2891-1.0117 4.5117-0.16406 0.26953-0.79297 1.0391-0.77734 1.0781-0.63672 0.89062-1.5234 1.1094-2.3945 1.1016-0.22656-0.027343-1.168-0.6875-1.2695-1.0742-0.035156-0.14062-0.16016-0.59375-0.24609-1.1719 1.8789-0.79688 2.4102-3.0312 2.4453-3.1211zm-11.543 0.28906 0.21094-0.015625c-0.88672 0.94531-1.9258 1.8906-2.9609 2.5078 0.28906-1.4805 1.3555-2.25 2.75-2.4922zm-2.7891 2.7148c1.418-0.12109 2.8359-0.3125 4.25-0.53125l3.1992 1.2695c-0.011718 0.125-0.027343 0.26953-0.054687 0.45703-0.21875 1.5664-0.98828 1.8125-2.0508 2.4062-2.2969 0.49609-4.4727 0.86328-5.3398-1.707l-0.050781-1.2539c0.003906-0.22656 0.019531-0.4375 0.046875-0.64062z"/>
  <path d="m36.492 30.82c-0.56641 2.0898 0.875 2.3281 1.082 3.4883 1.7422-0.054688 3.0391 0.59375 4.8008 1.3398-1.4883-3.1992-2.8867-6.7266-5.8828-4.8281z"/>
  <path d="m62.559 41.004c0.96094 1.3828 2.8516 2.5352 3.4609 2.8828 1.375-0.64844 1.8203-0.97656 2.2617-1.4609-2.3164 0.66016-3.9883-0.035156-5.7227-1.4219z"/>
 </g>
</svg>
